<svg width="182" height="863" viewBox="0 0 182 863" fill="none" xmlns="http://www.w3.org/2000/svg">
<g id="Group 2">
<g id="Group 1">
<path id="Vector" d="M117.895 695.914L117.895 734.33L118.519 734.657C131.114 740.605 142.708 748.974 152.79 759.396C161.989 768.925 169.311 780.549 174.275 793.507C179.149 806.607 181.603 820.702 181.485 834.919C181.635 844.141 180.516 853.334 178.168 862.165L167.978 857.206C172.885 846.299 175.485 834.248 175.573 822.005C175.514 804.177 169.243 787.098 158.125 774.489C153.371 768.847 148.009 763.904 142.167 759.777C134.485 754.742 126.447 750.44 118.135 746.917L117.51 746.59L117.51 762.066L112.992 760.976L112.992 744.629L112.223 744.302L109.964 743.212C101.601 739.579 93.3974 736.455 85.3545 733.84C77.3116 731.224 66.4329 727.827 52.7184 723.65C39.901 719.836 29.4869 717.111 21.476 715.476L15.2756 699.401L14.9392 701.418L14.9392 703.27C12.6845 725.396 11.4491 747.64 11.2382 769.912C11.087 779.604 11.7306 789.29 13.1608 798.847C14.0856 805.398 16.0738 811.698 19.0247 817.428C20.4264 820.596 22.5534 823.279 25.1831 825.197C27.8128 827.114 30.8486 828.195 33.9729 828.326C46.4378 828.326 53.4874 810.163 55.1216 773.836L64.7346 784.189C64.5101 796.679 61.3761 808.879 55.6503 819.553C53.6163 823.581 50.6861 826.933 47.1523 829.275C43.6184 831.618 39.6045 832.869 35.511 832.903C24.6483 832.903 15.9165 824.93 9.31559 808.982C3.74004 795.541 0.968228 775.706 1.00027 749.478C1.00027 742.449 1.33673 733.458 2.05771 722.233C2.77868 711.008 3.64392 699.729 4.74941 687.904C5.85491 676.08 7.00845 666.108 8.25814 658.425L8.64267 655.646L20.5628 662.566L20.1302 665.345C18.7363 674.499 17.2943 685.234 15.8043 697.44L15.8043 698.53L16.5734 698.53C18.7844 699.02 24.0716 700.437 32.3868 702.78C40.7021 705.123 47.6235 707.139 53.1029 708.883C58.5823 710.626 64.2059 712.479 70.0699 714.332C75.9338 716.185 81.7977 718.364 87.6136 720.653C97.8995 724.54 106.535 728.172 113.521 731.551L113.521 694.17L117.895 695.914Z" fill="#514D9E" stroke="#514D9E" stroke-width="0.25" stroke-miterlimit="10"/>
<path id="Vector_2" d="M98.3276 585.598L146.771 600.109C150.832 601.415 155.013 602.184 159.231 602.4C161.646 602.48 164.032 601.78 166.11 600.381C166.944 599.94 167.658 599.25 168.174 598.386C168.691 597.521 168.992 596.514 169.044 595.472C169.044 592.471 165.917 587.507 159.423 580.634L161.299 578.452L163.031 580.143C167.018 584.083 170.793 588.291 174.336 592.744C176.139 594.805 177.275 597.496 177.559 600.381C177.517 602.116 177.089 603.81 176.315 605.307C175.541 606.805 174.447 608.056 173.133 608.946C170.163 611.404 166.563 612.688 162.887 612.601C156.397 611.94 149.962 610.699 143.644 608.891L138.593 607.637C146.434 611.638 153.777 616.792 160.433 622.966C172.075 633.876 177.944 643.914 177.944 653.678C178.048 656.316 177.611 658.945 176.668 661.358C175.725 663.772 174.301 665.905 172.508 667.589C168.366 671.135 163.261 672.93 158.076 672.662C148.918 672.403 139.96 669.573 132.002 664.425C123.391 659.341 115.767 652.347 109.585 643.859C104.296 637.315 101.183 628.885 100.781 620.02C100.577 616.495 101.173 612.969 102.512 609.78C103.851 606.59 105.889 603.843 108.43 601.8L103.619 600.109L98.3276 585.598ZM115.309 603.327C112.152 604.4 109.385 606.6 107.42 609.601C105.536 612.528 104.54 616.069 104.582 619.693C104.869 625.041 106.752 630.12 109.921 634.094C114.111 639.7 119.164 644.395 124.834 647.95C130.104 651.385 135.684 654.165 141.479 656.242C146.345 658.18 151.433 659.301 156.585 659.57C160.298 659.791 163.984 658.746 167.168 656.57C168.404 655.624 169.406 654.335 170.079 652.827C170.753 651.318 171.075 649.64 171.017 647.95C170.704 642.422 168.696 637.192 165.34 633.167C160.631 627.137 155.131 621.967 149.032 617.838C145.226 614.914 141.143 612.48 136.861 610.583C131.309 608.306 125.657 606.358 119.928 604.746L115.309 603.327Z" fill="#514D9E" stroke="#514D9E" stroke-width="0.25" stroke-miterlimit="10"/>
<path id="Vector_3" d="M98.8756 529.7L142.41 543.259C147.994 545.245 153.783 546.398 159.631 546.689C162.012 546.778 164.375 546.198 166.51 545.001C167.277 544.613 167.932 543.988 168.4 543.199C168.867 542.409 169.13 541.486 169.156 540.536C169.156 537.323 165.885 532.259 159.535 525.234L161.411 522.784L162.854 524.308C167.087 528.334 171.088 532.663 174.832 537.269C176.642 539.352 177.749 542.089 177.959 545.001C177.923 546.636 177.519 548.234 176.787 549.644C176.055 551.054 175.018 552.229 173.774 553.06C170.704 555.376 167.069 556.538 163.383 556.382C159.159 556.173 154.959 555.554 150.828 554.531L104.504 544.838L98.8756 529.7ZM47.0193 525.234C46.966 524.048 47.1261 522.862 47.4899 521.748C47.8538 520.634 48.4138 519.616 49.1359 518.754C49.8552 517.93 50.7192 517.286 51.6721 516.864C52.625 516.442 53.6456 516.251 54.6678 516.304C55.7067 516.281 56.7386 516.502 57.6987 516.952C58.6589 517.401 59.5267 518.071 60.2479 518.918C61.7167 520.599 62.5405 522.869 62.5405 525.234C62.5405 527.599 61.7167 529.869 60.2479 531.551C59.5613 532.415 58.7236 533.108 57.7878 533.586C56.8521 534.064 55.8387 534.317 54.8121 534.328C53.7953 534.344 52.7867 534.12 51.8508 533.67C50.9148 533.22 50.0721 532.554 49.3764 531.714C48.6525 530.852 48.088 529.834 47.7163 528.722C47.3446 527.609 47.173 526.423 47.2117 525.234L47.0193 525.234Z" fill="#514D9E" stroke="#514D9E" stroke-width="0.25" stroke-miterlimit="10"/>
<path id="Vector_4" d="M138.667 505.268C131.171 497.666 122.447 491.731 112.964 487.78C111.49 491.464 109.09 494.59 106.057 496.777C103.023 498.965 99.486 500.12 95.876 500.102C92.8063 500.262 89.7808 499.236 87.3081 497.196C86.2836 496.326 85.4636 495.191 84.9186 493.888C84.3736 492.585 84.1199 491.154 84.1794 489.717C84.169 488.233 84.4999 486.77 85.1405 485.47C85.7811 484.17 86.7098 483.075 87.8376 482.292C90.6829 480.19 94.0593 479.17 97.4644 479.386C100.569 479.442 103.65 480.004 106.61 481.054C107.193 478.613 107.5 476.101 107.524 473.575C107.706 467.903 105.99 462.358 102.711 458.024L102.711 450.707L104.588 451.783C115.617 458.776 127.106 464.819 138.956 469.862C146.964 473.732 155.484 476.112 164.178 476.911C166.018 476.985 167.823 476.338 169.281 475.081C169.909 474.581 170.421 473.919 170.773 473.151C171.125 472.383 171.306 471.532 171.302 470.669C171.302 466.526 167.5 459.908 159.798 450.599L162.205 448.124C165.903 452.243 169.3 456.687 172.361 461.414C175.657 465.612 177.619 470.908 177.945 476.481C178.026 478.231 177.758 479.98 177.158 481.599C176.559 483.219 175.643 484.669 174.479 485.843C171.858 488.287 168.5 489.519 165.093 489.287C156.21 488.527 147.599 485.509 139.919 480.462C136.164 478.31 131.832 475.566 126.971 472.23C122.109 468.894 116.333 464.643 109.594 459.585L107.765 458.024C110.107 460.883 112.01 464.156 113.397 467.71C114.558 471.145 115.114 474.8 115.033 478.471C115.037 480.415 114.811 482.351 114.36 484.229C124.252 488.341 133.34 494.553 141.122 502.523L138.667 505.268ZM104.973 484.39C103.143 484.044 101.293 483.846 99.4379 483.798C96.9019 483.661 94.3782 484.273 92.1215 485.574C91.3697 485.995 90.7297 486.629 90.2653 487.412C89.8008 488.196 89.528 489.102 89.4742 490.04C89.4908 490.57 89.6168 491.089 89.8422 491.555C90.0676 492.022 90.3864 492.424 90.7737 492.73C91.6528 493.494 92.7415 493.893 93.8543 493.86C98.042 493.86 101.748 490.686 105.021 484.336L104.973 484.39Z" fill="#514D9E" stroke="#514D9E" stroke-width="0.25" stroke-miterlimit="10"/>
<path id="Vector_5" d="M174.911 366.392L177.717 376.587L123.533 364.374L118.695 363.284C116.599 362.74 114.46 362.43 112.309 362.357C108.39 362.357 106.455 364.156 106.455 367.809C107.064 372.59 109.154 376.975 112.357 380.185C117.473 386.065 123.227 391.194 129.484 395.45C133.957 398.729 138.575 401.75 143.32 404.5C147.934 407.087 152.665 409.398 157.495 411.424C162.333 413.55 168.235 415.568 174.718 417.53L177.524 427.071L103.794 411.206L98.3276 396.377L146.706 409.788C134.399 403.925 122.974 395.943 112.841 386.127C104.036 377.259 99.6339 369.263 99.6339 362.139C99.6339 354.397 103.407 350.527 110.954 350.527C115.571 350.845 120.153 351.63 124.646 352.871L144.481 357.941C132.054 350.97 120.341 342.488 109.552 332.644C106.656 330.228 104.248 327.146 102.489 323.603C100.729 320.06 99.6569 316.136 99.3436 312.091C99.2578 310.451 99.4759 308.81 99.984 307.27C100.492 305.731 101.279 304.328 102.295 303.15C103.427 302.008 104.751 301.135 106.189 300.582C107.627 300.03 109.149 299.809 110.664 299.933C115.811 300.329 120.904 301.352 125.855 302.986L142.207 307.784L147.384 309.31C151.4 310.522 155.519 311.253 159.672 311.491C162.038 311.614 164.391 311.031 166.493 309.801C167.248 309.423 167.893 308.814 168.355 308.043C168.817 307.271 169.077 306.369 169.106 305.439C169.106 302.168 165.816 297.044 159.43 290.011L161.317 287.721L162.768 289.084C167.046 293.128 171.071 297.5 174.814 302.168C176.632 304.279 177.743 307.034 177.959 309.965C177.923 311.601 177.517 313.201 176.781 314.612C176.044 316.024 175.001 317.201 173.75 318.033C170.663 320.351 167.007 321.515 163.3 321.359C159.046 321.116 154.82 320.441 150.673 319.342L123.098 313.89L118.26 312.963C116.165 312.405 114.025 312.094 111.874 312.036C111.16 312.002 110.448 312.134 109.782 312.425C109.116 312.716 108.51 313.159 108.003 313.726C107.499 314.351 107.111 315.082 106.862 315.878C106.613 316.674 106.507 317.518 106.552 318.36C106.699 321.071 107.558 323.671 109.019 325.83C111.151 329.112 113.675 332.047 116.518 334.553C120.767 338.325 125.227 341.785 129.871 344.911C136.649 349.593 143.696 353.764 150.964 357.396C158.763 360.983 166.762 363.988 174.911 366.392Z" fill="#514D9E" stroke="#514D9E" stroke-width="0.25" stroke-miterlimit="10"/>
<path id="Vector_6" d="M150.936 269.64C142.514 269.498 134.266 266.919 126.982 262.151C119.304 257.409 112.673 250.776 107.585 242.745C102.886 235.725 100.273 227.212 100.118 218.419C99.9769 214.529 100.565 210.649 101.843 207.032C103.122 203.415 105.062 200.143 107.537 197.428C110.107 194.747 113.123 192.666 116.411 191.305C119.698 189.945 123.192 189.332 126.691 189.501C135.369 189.527 143.897 192.048 151.47 196.826C159.248 201.512 165.98 208.129 171.157 216.178C175.954 223.111 178.641 231.603 178.819 240.394C178.978 244.344 178.376 248.285 177.053 251.947C175.731 255.609 173.719 258.904 171.157 261.604C165.604 267.151 158.348 270.035 150.936 269.64ZM121.842 203.386C117.109 203.171 112.453 204.792 108.652 207.978C107.008 209.308 105.673 211.066 104.761 213.103C103.849 215.14 103.387 217.395 103.415 219.676C103.467 224.153 104.736 228.503 107.052 232.14C109.86 236.556 113.442 240.277 117.574 243.073C123.421 247.04 129.695 250.145 136.243 252.311C142.377 254.535 148.762 255.75 155.203 255.919C160.56 256.314 165.885 254.741 170.381 251.436C172.143 249.959 173.552 248.012 174.483 245.77C175.413 243.529 175.837 241.062 175.715 238.59C175.715 229.625 170.381 221.699 159.616 214.92C153.757 211.276 147.518 208.466 141.044 206.557C134.716 204.53 128.177 203.464 121.599 203.386L121.842 203.386Z" fill="#514D9E" stroke="#514D9E" stroke-width="0.25" stroke-miterlimit="10"/>
<path id="Vector_7" d="M177.624 166.416L104.625 150.101L99.2124 135.472L147.591 148.688C134.894 142.169 123.086 133.616 112.529 123.291C104.545 114.88 100.554 106.831 100.554 99.1453C100.486 97.4347 100.737 95.7275 101.29 94.1346C101.843 92.5416 102.686 91.0989 103.763 89.9006C104.919 88.6873 106.278 87.7491 107.759 87.142C109.24 86.5349 110.812 86.2709 112.385 86.3656C115.293 86.5212 118.174 87.0875 120.959 88.0514L126.515 89.574L142.561 94.1966L147.687 95.7192C151.646 97.0444 155.73 97.8297 159.853 98.0579C162.196 98.181 164.526 97.5991 166.607 96.3717C167.362 95.9764 168.004 95.3495 168.461 94.5614C168.918 93.7734 169.172 92.8559 169.193 91.9127C169.193 88.7041 165.936 83.6466 159.614 76.6314L161.482 74.1841L162.919 75.7066C167.134 79.7269 171.118 84.0501 174.846 88.6496C176.648 90.7299 177.75 93.463 177.959 96.3717C177.923 98.0045 177.522 99.6 176.792 101.008C176.063 102.416 175.031 103.591 173.792 104.42C170.736 106.733 167.116 107.893 163.446 107.738C159.237 107.554 155.053 106.935 150.944 105.889L122.971 99.9067C119.934 99.2504 116.861 98.8326 113.774 98.656C113.007 98.6001 112.239 98.7205 111.515 99.0102C110.79 99.2999 110.125 99.7529 109.559 100.342C108.56 101.606 108.043 103.268 108.122 104.964C108.122 112.088 114.588 120.789 127.617 131.176C133.45 135.928 139.637 140.095 146.106 143.63C154.389 147.774 162.863 151.405 171.493 154.506L175.037 155.866L177.624 166.416Z" fill="#514D9E" stroke="#514D9E" stroke-width="0.25" stroke-miterlimit="10"/>
</g>
<path id="Vector_8" d="M105.551 27.0522L149.759 38.7512C153.162 39.7142 156.635 40.3307 160.136 40.5929C162.907 40.748 165.639 39.8091 167.858 37.9389C168.792 37.1322 169.542 36.0876 170.045 34.8916C170.549 33.6956 170.791 32.3823 170.753 31.0602C170.772 28.3614 170.066 25.7192 168.726 23.4776C166.152 19.6911 163.276 16.1742 160.136 12.97L158.543 11.1283L160.522 8.79934C165.492 13.2832 170.022 18.3488 174.035 23.9106C176.434 27.3154 177.803 31.4893 177.945 35.8265C178.034 38.0005 177.705 40.1706 176.98 42.1892C176.256 44.2079 175.153 46.0281 173.746 47.5258C170.746 50.5398 166.813 52.1147 162.79 51.913C157.911 51.6703 153.063 50.9084 148.312 49.6379L105.696 39.6722L105.696 54.1335L101.208 53.1044L101.208 38.3723L65.3488 29.7603L60.2812 15.0282L101.208 25.8607L101.208 0.999895L105.696 2.08322L105.551 27.0522Z" fill="#514D9E" stroke="#514D9E" stroke-width="0.25" stroke-miterlimit="10"/>
</g>
</svg>
