<svg width="388" height="44" viewBox="0 0 388 44" fill="none" xmlns="http://www.w3.org/2000/svg">
<g id="Group 21">
<line id="Line 7" x1="381.005" y1="21.75" x2="-4.00031" y2="21.75" stroke="#525771" stroke-width="1.5"/>
<path id="Vector" d="M355.154 36.989C363.384 32.4309 371.755 26.1284 379.985 21.5769L379.831 21.5441C371.601 16.9861 363.23 10.6835 355 6.13204L355.04 3.06273L355.075 -2.15693e-06C359.176 1.20673 363.277 2.41128 367.378 3.61364L357.491 3.39064L357.439 5.29912L358.95 6.25665C358.928 6.4682 358.948 6.6848 359.007 6.87968L380.433 20.1996C380.433 20.1996 381.752 20.1275 382.248 21.0194L388 21.4654L388 21.9901L382.248 22.436C381.76 23.328 380.433 23.2493 380.433 23.2493L359.003 36.5758C358.945 36.7711 358.926 36.9879 358.95 37.1988L357.342 37.8547L357.491 40.0714L367.378 39.8484C363.277 41.0464 359.176 42.2509 355.075 43.462L355.035 40.3927L355 37.33" fill="#525771"/>
</g>
</svg>
