<svg width="160" height="149" viewBox="0 0 160 149" fill="none" xmlns="http://www.w3.org/2000/svg">
<g clip-path="url(#clip0_2_32)">
<path d="M107.31 74.79C100.36 56.06 90.7502 37.01 83.8102 18.28L83.7602 18.63C76.8102 37.36 67.2002 56.41 60.2602 75.14L55.5801 75.05L50.9102 74.97C52.7502 65.6367 54.5868 56.3034 56.4202 46.97L56.0801 69.47L58.9901 69.59L60.4502 66.15C60.7727 66.2005 61.103 66.1553 61.4001 66.02L81.7101 17.26C81.7101 17.26 81.6001 14.26 82.9601 13.13L83.6402 0.0400391H84.4402L85.1201 13.13C86.4801 14.24 86.3601 17.26 86.3601 17.26L106.68 66.03C106.978 66.1631 107.309 66.2048 107.63 66.15L108.63 69.81L112.01 69.47L111.67 46.97C113.497 56.3034 115.333 65.6367 117.18 74.97L112.5 75.06L107.83 75.14" fill="#2A2849"/>
<path d="M30.6399 108.56H23.5899L23.5299 108.69C22.4384 111.31 20.9024 113.722 18.9899 115.82C17.241 117.734 15.1079 119.257 12.7299 120.29C10.3257 121.304 7.73911 121.814 5.12988 121.79C3.43749 121.821 1.75058 121.588 0.129883 121.1L1.03989 118.98C3.04147 120.001 5.25313 120.541 7.49988 120.56C10.7716 120.548 13.9059 119.243 16.2199 116.93C17.2554 115.941 18.1625 114.825 18.9199 113.61C19.8439 112.012 20.6333 110.339 21.2799 108.61L21.3399 108.48H18.4999L18.6999 107.54H21.6999L21.7599 107.38L21.9599 106.91C22.6265 105.17 23.1999 103.463 23.6799 101.79C24.1599 100.116 24.7832 97.8531 25.5499 94.9998C26.2499 92.3331 26.7499 90.1665 27.0499 88.4998L29.9999 87.2098L29.6299 87.1398H29.2899C25.2294 86.6707 21.1472 86.4137 17.0599 86.3698C15.2813 86.3384 13.5037 86.4723 11.7499 86.7698C10.5476 86.9622 9.39137 87.3759 8.33987 87.9898C7.75844 88.2814 7.26605 88.724 6.91422 89.2711C6.56238 89.8182 6.36401 90.4498 6.33987 91.0998C6.33987 93.6931 9.67321 95.1598 16.3399 95.4998L14.4399 97.4998C12.1477 97.4531 9.90872 96.8011 7.94989 95.6098C7.21079 95.1866 6.59558 94.577 6.16568 93.8418C5.73578 93.1066 5.50622 92.2715 5.49988 91.4198C5.49988 89.1598 6.96323 87.3431 9.88989 85.9698C12.3566 84.8098 15.9965 84.2331 20.8099 84.2398C22.0999 84.2398 23.7499 84.3098 25.8099 84.4598C27.8699 84.6098 29.9399 84.7898 32.1099 85.0198C34.2799 85.2498 36.1099 85.4898 37.5199 85.7498L38.0299 85.8298L36.7599 88.3098L36.2499 88.2198C34.5699 87.9298 32.5999 87.6298 30.3599 87.3198H30.1599V87.4798C30.0699 87.9398 29.8099 89.0398 29.3799 90.7698C28.9499 92.4998 28.5799 93.9398 28.2599 95.0798C27.9399 96.2198 27.5999 97.3898 27.2599 98.6098C26.9199 99.8298 26.5199 101.05 26.0999 102.26C25.3866 104.4 24.7199 106.196 24.0999 107.65H30.9599L30.6399 108.56Z" fill="#2A2849" stroke="#2A2849" stroke-width="0.25" stroke-miterlimit="10"/>
<path d="M50.9999 104.43L48.3399 114.5C48.1004 115.344 47.9595 116.214 47.9199 117.09C47.9053 117.592 48.0336 118.088 48.2899 118.52C48.3709 118.694 48.4973 118.842 48.6558 118.949C48.8142 119.057 48.9988 119.119 49.1899 119.13C49.7399 119.13 50.6499 118.48 51.9099 117.13L52.3099 117.52L51.9999 117.88C51.2776 118.709 50.5062 119.494 49.6899 120.23C49.3122 120.605 48.8188 120.841 48.2899 120.9C47.972 120.891 47.6614 120.802 47.3869 120.642C47.1125 120.481 46.8831 120.253 46.7199 119.98C46.2694 119.363 46.034 118.614 46.0499 117.85C46.1712 116.501 46.3986 115.164 46.7299 113.85L46.9599 112.8C46.2264 114.43 45.2816 115.957 44.1499 117.34C42.1499 119.76 40.3099 120.98 38.5199 120.98C38.0364 121.002 37.5546 120.911 37.1121 120.715C36.6697 120.519 36.2787 120.223 35.9699 119.85C35.3199 118.989 34.9909 117.928 35.0399 116.85C35.0876 114.946 35.6063 113.084 36.5499 111.43C37.4819 109.64 38.7639 108.055 40.3199 106.77C41.5196 105.671 43.0648 105.024 44.6899 104.94C45.3361 104.898 45.9824 105.022 46.5671 105.3C47.1518 105.578 47.6554 106.002 48.0299 106.53L48.3399 105.53L50.9999 104.43ZM47.7499 107.96C47.5533 107.304 47.1499 106.729 46.5999 106.32C46.0633 105.929 45.4142 105.722 44.7499 105.73C43.7695 105.79 42.8385 106.181 42.1099 106.84C41.0823 107.711 40.2217 108.761 39.5699 109.94C38.9403 111.036 38.4307 112.196 38.0499 113.4C37.6947 114.412 37.4892 115.469 37.4399 116.54C37.3995 117.312 37.591 118.078 37.9899 118.74C38.1634 118.997 38.3995 119.205 38.676 119.345C38.9526 119.485 39.2603 119.552 39.5699 119.54C40.5833 119.475 41.542 119.058 42.2799 118.36C43.3853 117.381 44.3331 116.238 45.0899 114.97C45.626 114.179 46.0721 113.33 46.4199 112.44C46.8372 111.286 47.1944 110.111 47.4899 108.92L47.7499 107.96Z" fill="#2A2849" stroke="#2A2849" stroke-width="0.25" stroke-miterlimit="10"/>
<path d="M61.2404 104.56L58.7504 113.61C58.3857 114.771 58.174 115.974 58.1204 117.19C58.1042 117.685 58.2106 118.176 58.4304 118.62C58.5017 118.779 58.6164 118.915 58.7614 119.013C58.9064 119.11 59.0759 119.164 59.2504 119.17C59.8404 119.17 60.7704 118.49 62.0604 117.17L62.5104 117.56L62.2304 117.86C61.4912 118.74 60.6962 119.572 59.8504 120.35C59.4679 120.726 58.9653 120.956 58.4304 121C58.1302 120.992 57.8368 120.909 57.5779 120.756C57.319 120.604 57.1031 120.389 56.9504 120.13C56.5253 119.492 56.3118 118.736 56.3404 117.97C56.3788 117.092 56.4925 116.219 56.6804 115.36L58.4604 105.73L61.2404 104.56ZM62.0604 93.7799C62.2782 93.7688 62.496 93.8021 62.7006 93.8778C62.9052 93.9534 63.0922 94.0698 63.2504 94.2199C63.4017 94.3694 63.52 94.5491 63.5975 94.7472C63.675 94.9452 63.7101 95.1574 63.7004 95.3699C63.7045 95.5859 63.664 95.8004 63.5814 96C63.4988 96.1996 63.3759 96.38 63.2204 96.5299C62.9116 96.8353 62.4948 97.0065 62.0604 97.0065C61.6261 97.0065 61.2093 96.8353 60.9004 96.5299C60.7418 96.3872 60.6145 96.213 60.5267 96.0185C60.4389 95.824 60.3925 95.6133 60.3904 95.3999C60.3875 95.1885 60.4286 94.9789 60.5113 94.7843C60.5939 94.5897 60.7162 94.4145 60.8704 94.2699C61.0288 94.1194 61.2157 94.0021 61.42 93.9248C61.6244 93.8475 61.8421 93.8119 62.0604 93.8199V93.7799Z" fill="#2A2849" stroke="#2A2849" stroke-width="0.25" stroke-miterlimit="10"/>
<path d="M65.6104 112.88C67.0231 111.322 68.1261 109.51 68.8604 107.54C68.1757 107.234 67.5948 106.735 67.1882 106.105C66.7817 105.475 66.567 104.74 66.5704 103.99C66.5406 103.352 66.7313 102.724 67.1104 102.21C67.2721 101.997 67.4831 101.827 67.7252 101.713C67.9674 101.6 68.2334 101.548 68.5004 101.56C68.7762 101.558 69.048 101.626 69.2897 101.76C69.5313 101.893 69.7347 102.086 69.8804 102.32C70.271 102.911 70.4604 103.612 70.4204 104.32C70.4099 104.965 70.3054 105.605 70.1104 106.22C70.564 106.341 71.0309 106.405 71.5004 106.41C72.5546 106.448 73.585 106.091 74.3904 105.41H75.7504L75.5504 105.8C74.2508 108.091 73.1276 110.478 72.1904 112.94C71.4712 114.604 71.0288 116.374 70.8804 118.18C70.8667 118.562 70.9869 118.937 71.2204 119.24C71.3134 119.37 71.4364 119.477 71.5791 119.55C71.7218 119.623 71.88 119.661 72.0404 119.66C72.8104 119.66 74.0404 118.87 75.7704 117.27L76.2304 117.77C75.4649 118.538 74.6389 119.244 73.7604 119.88C72.9803 120.564 71.996 120.972 70.9604 121.04C70.635 121.057 70.31 121.001 70.009 120.876C69.708 120.752 69.4386 120.562 69.2204 120.32C68.7661 119.775 68.5372 119.078 68.5804 118.37C68.7215 116.524 69.2825 114.736 70.2204 113.14C70.6204 112.36 71.1304 111.46 71.7504 110.45C72.3704 109.44 73.1604 108.24 74.1004 106.84L74.3904 106.46C73.859 106.946 73.2508 107.342 72.5904 107.63C71.9519 107.871 71.2727 107.987 70.5904 107.97C70.2291 107.971 69.8693 107.924 69.5204 107.83C68.7562 109.885 67.6017 111.773 66.1204 113.39L65.6104 112.88ZM69.4904 105.88C69.5547 105.5 69.5915 105.115 69.6004 104.73C69.6259 104.203 69.5121 103.679 69.2704 103.21C69.1921 103.054 69.0743 102.921 68.9287 102.824C68.7831 102.728 68.6147 102.671 68.4404 102.66C68.3419 102.663 68.2455 102.69 68.1588 102.736C68.072 102.783 67.9973 102.849 67.9404 102.93C67.7985 103.112 67.7243 103.339 67.7304 103.57C67.7304 104.44 68.3204 105.21 69.5004 105.89L69.4904 105.88Z" fill="#2A2849" stroke="#2A2849" stroke-width="0.25" stroke-miterlimit="10"/>
<path d="M91.2404 120.39L89.3704 120.97L91.6104 109.77L91.8104 108.77C91.9101 108.337 91.9671 107.895 91.9804 107.45C91.9804 106.64 91.6504 106.24 90.9804 106.24C90.1033 106.366 89.2991 106.798 88.7104 107.46C87.6317 108.517 86.691 109.707 85.9104 111C85.309 111.925 84.7549 112.879 84.2504 113.86C83.7759 114.814 83.352 115.792 82.9804 116.79C82.5904 117.79 82.2204 119.01 81.8604 120.35L80.1104 120.93L83.0204 105.69L85.7404 104.56L83.2804 114.56C84.3558 112.016 85.82 109.655 87.6204 107.56C89.247 105.74 90.7137 104.83 92.0204 104.83C93.4404 104.83 94.1504 105.61 94.1504 107.17C94.0919 108.124 93.948 109.071 93.7204 110L92.7904 114.1C94.069 111.531 95.6249 109.11 97.4304 106.88C97.8736 106.282 98.4388 105.784 99.0887 105.42C99.7387 105.056 100.458 104.835 101.2 104.77C101.501 104.752 101.802 104.797 102.085 104.902C102.367 105.007 102.624 105.17 102.84 105.38C103.05 105.614 103.21 105.888 103.311 106.185C103.413 106.482 103.453 106.797 103.43 107.11C103.358 108.174 103.17 109.227 102.87 110.25L101.99 113.63L101.71 114.7C101.488 115.53 101.354 116.382 101.31 117.24C101.288 117.729 101.395 118.216 101.62 118.65C101.69 118.806 101.801 118.939 101.943 119.035C102.084 119.13 102.25 119.184 102.42 119.19C103.02 119.19 103.96 118.51 105.25 117.19L105.67 117.58L105.42 117.88C104.679 118.764 103.877 119.596 103.02 120.37C102.633 120.746 102.128 120.975 101.59 121.02C101.29 121.013 100.997 120.929 100.738 120.777C100.479 120.624 100.263 120.409 100.11 120.15C99.6852 119.512 99.4718 118.756 99.5004 117.99C99.545 117.111 99.6688 116.237 99.8704 115.38L100.87 109.68L101.04 108.68C101.143 108.247 101.2 107.805 101.21 107.36C101.217 107.213 101.192 107.065 101.139 106.928C101.086 106.79 101.004 106.665 100.9 106.56C100.786 106.456 100.652 106.376 100.506 106.324C100.36 106.273 100.205 106.251 100.05 106.26C99.5532 106.29 99.0763 106.468 98.6804 106.77C98.0783 107.211 97.5399 107.732 97.0804 108.32C96.3885 109.198 95.7538 110.12 95.1804 111.08C94.3216 112.481 93.5566 113.938 92.8904 115.44C92.2325 117.052 91.6813 118.706 91.2404 120.39V120.39Z" fill="#2A2849" stroke="#2A2849" stroke-width="0.25" stroke-miterlimit="10"/>
<path d="M108.95 115.41C108.976 113.673 109.448 111.972 110.32 110.47C111.187 108.887 112.401 107.519 113.87 106.47C115.154 105.501 116.711 104.962 118.32 104.93C119.032 104.901 119.741 105.022 120.403 105.286C121.065 105.549 121.663 105.95 122.16 106.46C122.65 106.99 123.031 107.612 123.28 108.29C123.529 108.968 123.641 109.688 123.61 110.41C123.605 112.2 123.144 113.958 122.27 115.52C121.413 117.124 120.202 118.512 118.73 119.58C117.462 120.569 115.908 121.123 114.3 121.16C113.577 121.193 112.856 121.069 112.186 120.796C111.517 120.523 110.914 120.108 110.42 119.58C109.405 118.435 108.878 116.938 108.95 115.41V115.41ZM121.07 109.41C121.109 108.434 120.813 107.474 120.23 106.69C119.987 106.351 119.665 106.076 119.292 105.888C118.92 105.699 118.507 105.604 118.09 105.61C117.271 105.621 116.475 105.882 115.81 106.36C115.002 106.939 114.321 107.678 113.81 108.53C113.084 109.736 112.516 111.03 112.12 112.38C111.713 113.645 111.491 114.962 111.46 116.29C111.388 117.395 111.675 118.493 112.28 119.42C112.55 119.783 112.906 120.074 113.316 120.266C113.727 120.458 114.178 120.545 114.63 120.52C116.27 120.52 117.72 119.42 118.96 117.2C119.627 115.992 120.141 114.705 120.49 113.37C120.861 112.065 121.056 110.716 121.07 109.36V109.41Z" fill="#2A2849" stroke="#2A2849" stroke-width="0.25" stroke-miterlimit="10"/>
<path d="M127.9 120.97L130.9 105.73L133.59 104.6L131.16 114.7C132.359 112.049 133.932 109.584 135.83 107.38C137.377 105.713 138.857 104.88 140.27 104.88C140.585 104.866 140.899 104.918 141.192 105.034C141.485 105.149 141.75 105.325 141.97 105.55C142.193 105.791 142.366 106.075 142.478 106.384C142.589 106.693 142.638 107.022 142.62 107.35C142.592 107.957 142.488 108.559 142.31 109.14L142.03 110.3L141.18 113.65L140.9 114.72C140.657 115.547 140.512 116.399 140.47 117.26C140.448 117.749 140.555 118.236 140.78 118.67C140.853 118.828 140.968 118.962 141.113 119.057C141.258 119.153 141.427 119.206 141.6 119.21C142.19 119.21 143.12 118.53 144.41 117.21L144.86 117.6L144.58 117.9C143.841 118.78 143.046 119.612 142.2 120.39C141.818 120.766 141.315 120.997 140.78 121.04C140.48 121.033 140.187 120.949 139.928 120.797C139.669 120.644 139.453 120.429 139.3 120.17C138.875 119.532 138.662 118.776 138.69 118.01C138.724 117.132 138.838 116.258 139.03 115.4L140.13 109.56C140.251 108.926 140.328 108.285 140.36 107.64C140.371 107.48 140.348 107.32 140.295 107.168C140.242 107.017 140.159 106.878 140.05 106.76C139.818 106.552 139.512 106.444 139.2 106.46C137.89 106.46 136.29 107.81 134.38 110.53C133.507 111.748 132.74 113.04 132.09 114.39C131.328 116.119 130.661 117.889 130.09 119.69L129.84 120.43L127.9 120.97Z" fill="#2A2849" stroke="#2A2849" stroke-width="0.25" stroke-miterlimit="10"/>
<path d="M153.5 106L151.34 115.16C151.162 115.865 151.048 116.585 151 117.31C150.971 117.884 151.145 118.45 151.49 118.91C151.639 119.104 151.832 119.259 152.053 119.363C152.273 119.468 152.516 119.518 152.76 119.51C153.258 119.514 153.746 119.368 154.16 119.09C154.859 118.557 155.508 117.961 156.1 117.31L156.44 116.98L156.87 117.39C156.042 118.42 155.107 119.359 154.08 120.19C153.451 120.687 152.681 120.971 151.88 121C151.479 121.019 151.078 120.95 150.705 120.8C150.333 120.65 149.997 120.422 149.72 120.13C149.164 119.508 148.873 118.694 148.91 117.86C148.955 116.849 149.095 115.845 149.33 114.86L151.17 106.03H148.5L148.69 105.1H151.41L153 97.6701L155.72 96.6201L153.72 105.1H158.31L158.11 106.03L153.5 106Z" fill="#2A2849" stroke="#2A2849" stroke-width="0.25" stroke-miterlimit="10"/>
<path d="M3.01004 135.35V145.24C3.01004 146.03 3.01004 146.52 3.01004 146.73C3.01674 146.823 3.04346 146.913 3.08835 146.994C3.13324 147.075 3.19522 147.145 3.27002 147.2C3.51549 147.33 3.79349 147.386 4.07004 147.36H4.29004V147.77H0.290039V147.36H0.550018C0.815476 147.38 1.08138 147.328 1.32004 147.21C1.39256 147.164 1.4542 147.102 1.50079 147.03C1.54738 146.957 1.57782 146.875 1.59003 146.79C1.61879 146.274 1.61879 145.756 1.59003 145.24V137.92C1.63935 137.42 1.56732 136.916 1.38004 136.45C1.24004 136.25 0.910035 136.15 0.380035 136.15V135.73C0.815836 135.724 1.25049 135.684 1.68002 135.61C2.02176 135.56 2.35704 135.473 2.68002 135.35H3.01004Z" fill="#2A2849"/>
<path d="M12.5003 142.88H7.34033C7.34033 143.23 7.34033 143.5 7.34033 143.67C7.27857 144.684 7.4892 145.695 7.95035 146.6C8.1331 146.917 8.39944 147.179 8.72037 147.355C9.0413 147.531 9.40449 147.616 9.77033 147.6C10.2643 147.626 10.7542 147.498 11.1718 147.232C11.5894 146.967 11.914 146.578 12.1003 146.12H12.5003C12.3117 146.728 11.9011 147.242 11.3503 147.56C10.7983 147.884 10.1701 148.054 9.53034 148.054C8.89056 148.054 8.26233 147.884 7.71033 147.56C7.14504 147.24 6.67287 146.778 6.34033 146.22C5.96463 145.582 5.7774 144.85 5.80033 144.11C5.75751 143.049 6.11436 142.011 6.80033 141.2C7.11885 140.829 7.51513 140.533 7.96103 140.333C8.40693 140.132 8.89151 140.032 9.38034 140.04C9.7968 140.014 10.2139 140.08 10.6024 140.232C10.991 140.384 11.3418 140.619 11.6303 140.92C12.1519 141.444 12.4617 142.142 12.5003 142.88V142.88ZM10.9204 142.52C10.9204 142.38 10.9204 142.26 10.9204 142.15C10.934 141.923 10.9001 141.695 10.8209 141.482C10.7417 141.268 10.6189 141.074 10.4603 140.91C10.1519 140.622 9.74218 140.467 9.32035 140.48C8.22035 140.48 7.57035 141.16 7.32035 142.48L10.9204 142.52Z" fill="#2A2849"/>
<path d="M25.8997 145.97H26.2997C26.1261 146.631 25.7202 147.207 25.1563 147.593C24.5924 147.978 23.9084 148.148 23.2297 148.07C22.7354 148.081 22.244 147.992 21.7852 147.808C21.3263 147.625 20.9094 147.35 20.5597 147C20.1969 146.623 19.915 146.175 19.731 145.685C19.547 145.195 19.4649 144.673 19.4897 144.15C19.468 143.623 19.5535 143.096 19.741 142.602C19.9284 142.109 20.2139 141.658 20.5802 141.278C20.9465 140.897 21.3861 140.595 21.8724 140.389C22.3587 140.184 22.8816 140.078 23.4097 140.08C24.0217 140.076 24.6257 140.22 25.1697 140.5C25.6997 140.78 25.9697 141.12 25.9697 141.5C25.969 141.656 25.9162 141.808 25.8197 141.93C25.7696 141.996 25.7042 142.048 25.6293 142.083C25.5544 142.118 25.4722 142.134 25.3897 142.13C24.9997 142.13 24.7497 141.9 24.6597 141.43C24.6267 141.159 24.5115 140.904 24.3297 140.7C24.0587 140.53 23.738 140.456 23.4197 140.49C23.0689 140.468 22.718 140.532 22.3986 140.679C22.0791 140.826 21.8012 141.049 21.5897 141.33C21.1376 142.093 20.9283 142.976 20.9897 143.86C20.9344 144.814 21.1604 145.763 21.6397 146.59C21.854 146.92 22.1523 147.186 22.5038 147.362C22.8554 147.538 23.2475 147.616 23.6397 147.59C24.1476 147.634 24.6543 147.494 25.0686 147.197C25.483 146.9 25.7776 146.465 25.8997 145.97V145.97Z" fill="#2A2849"/>
<path d="M30.04 141.56C30.3519 141.093 30.7656 140.703 31.25 140.42C31.7023 140.168 32.2121 140.037 32.73 140.04C33.2592 140.021 33.7829 140.152 34.24 140.42C34.6036 140.628 34.883 140.957 35.03 141.35C35.1748 141.938 35.2354 142.544 35.21 143.15V145.2C35.1927 145.727 35.2094 146.255 35.26 146.78C35.2731 146.866 35.3061 146.948 35.3565 147.019C35.4068 147.09 35.4731 147.149 35.55 147.19C35.8366 147.3 36.1441 147.344 36.45 147.32V147.73H32.63V147.32H32.8C33.1 147.359 33.4042 147.291 33.66 147.13C33.7834 147.01 33.8612 146.851 33.88 146.68C33.88 146.51 33.88 146.02 33.88 145.2V142.97C33.8942 142.514 33.8607 142.058 33.78 141.61C33.6987 141.313 33.5144 141.054 33.26 140.88C32.9661 140.679 32.6157 140.577 32.26 140.59C31.8038 140.588 31.3588 140.731 30.99 141C30.5665 141.327 30.2243 141.748 29.99 142.23V145.23C29.9641 145.74 29.9641 146.25 29.99 146.76C30.0007 146.848 30.0304 146.933 30.077 147.009C30.1236 147.085 30.186 147.15 30.26 147.2C30.5294 147.322 30.8253 147.373 31.12 147.35V147.76H27.5V147.35H27.68C27.9769 147.389 28.2779 147.321 28.53 147.16C28.6538 147.043 28.7348 146.888 28.76 146.72C28.76 146.55 28.76 146.05 28.76 145.23V137.86C28.806 137.376 28.7339 136.889 28.55 136.44C28.3967 136.24 28.0633 136.14 27.55 136.14V135.72C28.344 135.747 29.1356 135.618 29.88 135.34H30.07L30.04 141.56Z" fill="#2A2849"/>
<path d="M45.5001 146.42H45.8301C45.7801 147.42 45.2701 147.96 44.3101 147.96C44.1306 147.975 43.9498 147.955 43.7782 147.9C43.6066 147.845 43.4475 147.757 43.3101 147.64C43.044 147.371 42.8812 147.017 42.8501 146.64C42.3361 147.029 41.7832 147.365 41.2001 147.64C40.7837 147.838 40.3308 147.947 39.8701 147.96C39.4031 147.972 38.9467 147.82 38.5801 147.53C38.4027 147.397 38.2601 147.223 38.1643 147.022C38.0686 146.822 38.0226 146.602 38.0301 146.38C38.0394 146.057 38.1271 145.74 38.2856 145.458C38.4441 145.176 38.6687 144.936 38.9401 144.76C39.7141 144.2 40.5579 143.742 41.4501 143.4L42.8501 142.83V142.47C42.8606 142.097 42.8271 141.725 42.7501 141.36C42.6563 141.1 42.4716 140.884 42.2301 140.75C41.9 140.558 41.5218 140.464 41.1401 140.48C40.2401 140.48 39.7301 140.78 39.6301 141.38C39.5301 141.98 39.2801 142.3 38.8701 142.3C38.4601 142.3 38.3201 142.13 38.3201 141.78C38.3539 141.553 38.4367 141.336 38.5627 141.145C38.6888 140.953 38.8551 140.791 39.0501 140.67C39.6652 140.327 40.3503 140.128 41.0536 140.088C41.757 140.048 42.4601 140.168 43.1101 140.44C43.4696 140.618 43.7637 140.905 43.9501 141.26C44.1043 141.713 44.1722 142.192 44.1501 142.67V145.67C44.1218 146.123 44.1589 146.578 44.2601 147.02C44.2933 147.116 44.3578 147.197 44.443 147.252C44.5283 147.306 44.6294 147.33 44.7301 147.32C45.1501 147.31 45.4001 147.01 45.5001 146.42ZM41.0301 135.56H41.9401L43.3601 138.09C43.4594 138.24 43.5337 138.406 43.5801 138.58C43.5801 138.66 43.5801 138.7 43.4801 138.7C43.3801 138.7 43.2701 138.59 43.0601 138.39L41.3001 136.75L39.8901 138.43C39.7201 138.63 39.6001 138.73 39.5401 138.73C39.4801 138.73 39.4501 138.73 39.4501 138.6C39.4773 138.447 39.5351 138.301 39.6201 138.17L41.0301 135.56ZM42.8801 143.26L41.8801 143.66C40.3301 144.29 39.5501 145.08 39.5501 146.04C39.5339 146.373 39.6407 146.701 39.8501 146.96C39.9462 147.072 40.0659 147.162 40.2008 147.223C40.3357 147.283 40.4823 147.313 40.6301 147.31C40.9816 147.294 41.3243 147.194 41.6301 147.02C42.0813 146.79 42.5041 146.508 42.8901 146.18L42.8801 143.26Z" fill="#2A2849"/>
<path d="M51.6 140.79H49.37V145.26C49.3528 145.725 49.383 146.191 49.46 146.65C49.5104 146.881 49.6461 147.085 49.84 147.22C50.0186 147.363 50.241 147.441 50.47 147.44C50.7062 147.425 50.9345 147.349 51.1325 147.219C51.3306 147.089 51.4916 146.911 51.6 146.7L51.89 146.87C51.7142 147.249 51.4239 147.564 51.06 147.77C50.722 147.964 50.3397 148.067 49.95 148.07C49.5382 148.075 49.1368 147.941 48.81 147.69C48.5085 147.47 48.2928 147.152 48.2 146.79C48.0958 146.193 48.0522 145.586 48.07 144.98V140.79H47V140.38C47.2524 140.369 47.5001 140.307 47.7285 140.199C47.9569 140.091 48.1613 139.938 48.33 139.75C48.7517 139.28 49.0141 138.688 49.08 138.06H49.37V140.38H51.6V140.79Z" fill="#2A2849"/>
<path d="M59.8 142.88H54.64C54.64 143.23 54.64 143.5 54.64 143.67C54.5732 144.684 54.7841 145.697 55.25 146.6C55.4327 146.917 55.6991 147.178 56.02 147.355C56.341 147.531 56.7041 147.616 57.07 147.6C57.5635 147.623 58.052 147.493 58.469 147.228C58.886 146.964 59.2111 146.576 59.4 146.12H59.83C59.6492 146.729 59.2409 147.244 58.69 147.56C58.1273 147.904 57.4796 148.084 56.82 148.08C56.1961 148.079 55.5829 147.917 55.04 147.61C54.4769 147.287 54.0054 146.826 53.67 146.27C53.3018 145.629 53.1183 144.899 53.14 144.16C53.0922 143.098 53.4497 142.058 54.14 141.25C54.4565 140.879 54.851 140.583 55.2953 140.383C55.7396 140.182 56.2226 140.082 56.71 140.09C57.1264 140.064 57.5435 140.13 57.9321 140.282C58.3207 140.434 58.6714 140.669 58.96 140.97C59.4595 141.486 59.7575 142.163 59.8 142.88V142.88ZM58.22 142.52C58.2287 142.397 58.2287 142.273 58.22 142.15C58.2323 141.922 58.1968 141.694 58.1159 141.48C58.0349 141.267 57.9103 141.073 57.75 140.91C57.4416 140.622 57.0318 140.467 56.61 140.48C55.51 140.48 54.86 141.16 54.61 142.48L58.22 142.52Z" fill="#2A2849"/>
<path d="M69.1499 146.42H69.4999C69.4399 147.42 68.9399 147.96 67.9799 147.96C67.8004 147.975 67.6196 147.954 67.448 147.899C67.2764 147.845 67.1174 147.756 66.9799 147.64C66.715 147.369 66.5494 147.017 66.5099 146.64C65.9978 147.027 65.4484 147.362 64.8699 147.64C64.4504 147.839 63.994 147.948 63.5299 147.96C63.0629 147.972 62.6065 147.819 62.2399 147.53C62.0656 147.394 61.9258 147.219 61.832 147.02C61.7381 146.82 61.6929 146.601 61.6999 146.38C61.7092 146.056 61.7969 145.74 61.9554 145.458C62.1139 145.176 62.3385 144.936 62.6099 144.76C63.3802 144.199 64.2207 143.742 65.1099 143.4L66.5099 142.83V142.47C66.5256 142.097 66.492 141.724 66.4099 141.36C66.3237 141.099 66.1413 140.881 65.8999 140.75C65.5698 140.558 65.1916 140.464 64.8099 140.48C63.8999 140.48 63.3999 140.78 63.2999 141.38C63.1999 141.98 62.9499 142.3 62.5399 142.3C62.1299 142.3 61.9899 142.13 61.9899 141.78C62.0217 141.552 62.1037 141.335 62.23 141.143C62.3562 140.951 62.5236 140.789 62.7199 140.67C63.335 140.326 64.0201 140.127 64.7234 140.088C65.4268 140.048 66.13 140.168 66.7799 140.44C67.1391 140.615 67.4307 140.903 67.6099 141.26C67.769 141.712 67.837 142.191 67.8099 142.67V145.67C67.787 146.123 67.824 146.577 67.9199 147.02C67.9532 147.115 68.0176 147.197 68.1029 147.251C68.1881 147.306 68.2893 147.33 68.3899 147.32C68.8099 147.31 69.0599 147.01 69.1499 146.42ZM66.4999 143.26L65.4999 143.66C63.9499 144.29 63.1699 145.08 63.1699 146.04C63.1538 146.373 63.2605 146.7 63.4699 146.96C63.5649 147.071 63.6831 147.16 63.8161 147.22C63.9491 147.281 64.0938 147.311 64.2399 147.31C64.5915 147.293 64.9341 147.194 65.2399 147.02C65.6878 146.789 66.1073 146.507 66.4899 146.18L66.4999 143.26Z" fill="#2A2849"/>
<path d="M78.2196 140.38V145.23C78.2196 146.03 78.2196 146.54 78.2196 146.75C78.2301 146.841 78.2596 146.929 78.3061 147.008C78.3526 147.088 78.4151 147.156 78.4896 147.21C78.7482 147.332 79.0346 147.384 79.3196 147.36V147.77C78.6412 147.75 77.9644 147.848 77.3196 148.06H77.2096C76.9779 147.521 76.8752 146.935 76.9096 146.35C76.5905 146.868 76.1601 147.309 75.6496 147.64C75.1759 147.925 74.6326 148.074 74.0796 148.07C73.6197 148.081 73.1659 147.963 72.7696 147.73C72.4282 147.548 72.1547 147.26 71.9896 146.91C71.8229 146.438 71.7483 145.939 71.7696 145.44V142.91C71.7956 142.39 71.7956 141.87 71.7696 141.35C71.758 141.262 71.7257 141.178 71.6752 141.105C71.6248 141.032 71.5578 140.972 71.4796 140.93C71.2005 140.818 70.8997 140.77 70.5996 140.79V140.38H73.1196V145.56C73.1022 145.929 73.1325 146.299 73.2096 146.66C73.2785 146.912 73.4437 147.128 73.6696 147.26C73.9187 147.433 74.216 147.524 74.5196 147.52C75.0015 147.517 75.469 147.355 75.8496 147.06C76.2236 146.81 76.524 146.465 76.7196 146.06C76.8937 145.597 76.9719 145.104 76.9496 144.61V142.93C76.9496 142.13 76.9496 141.64 76.9496 141.46C76.9273 141.288 76.846 141.129 76.7196 141.01C76.4681 140.846 76.1676 140.776 75.8696 140.81H75.6796V140.4L78.2196 140.38Z" fill="#2A2849"/>
<path d="M89.9397 140.38V140.79H88.3897V145.24C88.3648 145.736 88.3648 146.234 88.3897 146.73C88.3945 146.822 88.4194 146.912 88.4626 146.993C88.5058 147.074 88.5663 147.145 88.6397 147.2C88.8885 147.331 89.1699 147.386 89.4497 147.36H89.8397V147.77H85.8397V147.36C86.1357 147.382 86.4329 147.337 86.7097 147.23C86.7854 147.195 86.8514 147.142 86.902 147.076C86.9525 147.01 86.9861 146.932 86.9997 146.85C87.0576 146.315 87.0776 145.777 87.0597 145.24V140.79H85.6797V140.38H87.0597V139.71C87.0501 139.129 87.0802 138.547 87.1497 137.97C87.2279 137.515 87.4018 137.082 87.6597 136.7C87.9255 136.285 88.2895 135.941 88.7197 135.7C89.1837 135.453 89.7044 135.332 90.2297 135.35C90.8314 135.317 91.4285 135.471 91.9397 135.79C92.3697 136.08 92.5797 136.38 92.5797 136.69C92.583 136.771 92.5686 136.851 92.5375 136.925C92.5064 136.999 92.4593 137.066 92.3997 137.12C92.3455 137.177 92.2804 137.222 92.2082 137.253C92.136 137.284 92.0583 137.3 91.9797 137.3C91.6597 137.3 91.3697 137.05 91.0997 136.56C91.0074 136.327 90.8498 136.126 90.6458 135.98C90.4418 135.835 90.2 135.751 89.9497 135.74C89.764 135.738 89.5797 135.773 89.4079 135.843C89.2361 135.914 89.0802 136.018 88.9497 136.15C88.6694 136.415 88.4892 136.768 88.4397 137.15C88.3602 138.028 88.3302 138.909 88.3497 139.79V140.35L89.9397 140.38Z" fill="#2A2849"/>
<path d="M94.03 141.97C94.2332 141.437 94.5791 140.97 95.03 140.62C95.4058 140.292 95.8818 140.102 96.38 140.08C96.5541 140.07 96.7282 140.098 96.8905 140.162C97.0527 140.226 97.1992 140.324 97.32 140.45C97.5296 140.649 97.6549 140.921 97.67 141.21C97.6713 141.378 97.6067 141.539 97.49 141.66C97.4364 141.721 97.3701 141.769 97.2959 141.802C97.2217 141.835 97.1412 141.851 97.06 141.85C96.76 141.85 96.53 141.63 96.37 141.18C96.21 140.73 96.1 140.73 95.89 140.73C95.5254 140.786 95.1943 140.975 94.96 141.26C94.6304 141.552 94.3881 141.929 94.26 142.35C94.1464 142.865 94.096 143.393 94.11 143.92V145.24C94.11 146.03 94.11 146.52 94.11 146.73C94.1148 146.822 94.1397 146.912 94.1829 146.993C94.2261 147.074 94.2865 147.145 94.36 147.2C94.6092 147.33 94.8903 147.385 95.17 147.36H95.5V147.77H91.5V147.36H91.69C91.9555 147.381 92.2218 147.329 92.46 147.21C92.5348 147.165 92.5988 147.104 92.6472 147.031C92.6956 146.959 92.7273 146.876 92.74 146.79C92.7664 146.274 92.7664 145.756 92.74 145.24V143.15C92.74 142.35 92.74 141.86 92.74 141.65C92.7339 141.558 92.7084 141.469 92.6653 141.388C92.6222 141.307 92.5625 141.236 92.49 141.18C92.2412 141.049 91.9598 140.994 91.68 141.02H91.5V140.61C92.2554 140.505 92.9988 140.328 93.72 140.08C93.9311 140.688 94.036 141.327 94.03 141.97Z" fill="#2A2849"/>
<path d="M98.4997 144.06C98.4866 143.535 98.5799 143.012 98.7741 142.524C98.9683 142.036 99.2594 141.592 99.6298 141.22C99.9943 140.849 100.431 140.557 100.912 140.361C101.394 140.165 101.91 140.069 102.43 140.08C102.952 140.067 103.472 140.162 103.955 140.36C104.439 140.558 104.876 140.854 105.24 141.23C105.613 141.599 105.906 142.04 106.102 142.527C106.298 143.014 106.393 143.535 106.38 144.06C106.411 144.605 106.323 145.15 106.123 145.657C105.922 146.165 105.614 146.623 105.22 147C104.467 147.71 103.464 148.094 102.43 148.07C101.917 148.081 101.408 147.99 100.931 147.803C100.454 147.616 100.018 147.336 99.6497 146.98C99.2617 146.603 98.9584 146.147 98.7601 145.644C98.5618 145.14 98.4731 144.6 98.4997 144.06V144.06ZM99.9997 144.11C99.9089 145.075 100.133 146.043 100.64 146.87C100.856 147.132 101.13 147.34 101.441 147.477C101.752 147.614 102.09 147.677 102.43 147.66C102.774 147.679 103.117 147.618 103.433 147.48C103.749 147.343 104.029 147.134 104.25 146.87C104.739 146.037 104.955 145.072 104.87 144.11C104.956 143.141 104.739 142.17 104.25 141.33C104.025 141.068 103.747 140.858 103.434 140.714C103.12 140.569 102.78 140.495 102.435 140.495C102.09 140.495 101.749 140.569 101.436 140.714C101.123 140.858 100.844 141.068 100.62 141.33C100.145 142.175 99.9425 143.146 100.04 144.11H99.9997Z" fill="#2A2849"/>
<path d="M110.15 140.08H110.39C110.551 140.57 110.629 141.084 110.62 141.6C111 141.137 111.465 140.75 111.99 140.46C112.448 140.212 112.96 140.081 113.48 140.08C113.99 140.058 114.494 140.186 114.93 140.45C115.272 140.659 115.53 140.981 115.66 141.36C115.78 141.871 115.834 142.395 115.82 142.92V145.24C115.794 145.76 115.794 146.281 115.82 146.8C115.832 146.888 115.864 146.972 115.915 147.045C115.965 147.118 116.032 147.178 116.11 147.22C116.389 147.332 116.69 147.38 116.99 147.36V147.77H113.2V147.36H113.38C113.674 147.398 113.972 147.331 114.22 147.17C114.35 147.058 114.432 146.901 114.45 146.73C114.45 146.56 114.45 146.06 114.45 145.24V142.85C114.464 142.432 114.434 142.013 114.36 141.6C114.294 141.331 114.13 141.096 113.9 140.94C113.613 140.725 113.258 140.622 112.9 140.65C112.451 140.653 112.013 140.789 111.64 141.04C111.188 141.357 110.801 141.757 110.5 142.22V145.22C110.488 145.741 110.505 146.261 110.55 146.78C110.564 146.867 110.597 146.95 110.647 147.023C110.698 147.096 110.764 147.156 110.84 147.2C111.122 147.314 111.427 147.362 111.73 147.34V147.75H107.99V147.34C108.286 147.362 108.583 147.318 108.86 147.21C108.936 147.174 109.002 147.121 109.054 147.055C109.106 146.989 109.143 146.912 109.16 146.83C109.218 146.296 109.238 145.758 109.22 145.22V143.01C109.255 142.491 109.255 141.97 109.22 141.45C109.209 141.362 109.176 141.278 109.126 141.205C109.075 141.132 109.008 141.072 108.93 141.03C108.648 140.916 108.344 140.869 108.04 140.89V140.47C108.754 140.404 109.46 140.274 110.15 140.08V140.08Z" fill="#2A2849"/>
<path d="M123 140.79H120.77V145.26C120.753 145.725 120.783 146.191 120.86 146.65C120.919 146.88 121.057 147.082 121.25 147.22C121.426 147.361 121.645 147.439 121.87 147.44C122.107 147.426 122.336 147.35 122.534 147.22C122.732 147.09 122.893 146.911 123 146.7L123.29 146.87C123.123 147.255 122.83 147.572 122.46 147.77C122.126 147.963 121.747 148.066 121.36 148.07C120.948 148.078 120.546 147.944 120.22 147.69C119.916 147.47 119.697 147.152 119.6 146.79C119.501 146.192 119.461 145.586 119.48 144.98V140.79H118.4V140.38C118.653 140.37 118.901 140.309 119.13 140.201C119.358 140.092 119.562 139.939 119.73 139.75C120.152 139.28 120.415 138.688 120.48 138.06H120.77V140.38H123V140.79Z" fill="#2A2849"/>
<path d="M131.21 142.88H126.05C126.05 143.23 126.05 143.5 126.05 143.67C125.989 144.684 126.199 145.695 126.66 146.6C126.843 146.917 127.109 147.179 127.43 147.355C127.751 147.531 128.114 147.616 128.48 147.6C128.974 147.626 129.464 147.498 129.882 147.232C130.299 146.967 130.624 146.578 130.81 146.12H131.25C131.062 146.728 130.651 147.242 130.1 147.56C129.548 147.884 128.92 148.054 128.28 148.054C127.641 148.054 127.012 147.884 126.46 147.56C125.895 147.24 125.423 146.778 125.09 146.22C124.715 145.582 124.527 144.85 124.55 144.11C124.508 143.049 124.864 142.011 125.55 141.2C125.869 140.829 126.265 140.533 126.711 140.333C127.157 140.132 127.642 140.032 128.13 140.04C128.547 140.014 128.964 140.08 129.352 140.232C129.741 140.384 130.092 140.619 130.38 140.92C130.887 141.45 131.183 142.147 131.21 142.88V142.88ZM129.63 142.52C129.63 142.38 129.63 142.26 129.63 142.15C129.644 141.923 129.61 141.695 129.531 141.482C129.452 141.268 129.329 141.074 129.17 140.91C128.862 140.622 128.452 140.467 128.03 140.48C126.93 140.48 126.28 141.16 126.03 142.48L129.63 142.52Z" fill="#2A2849"/>
<path d="M134.96 140.08H135.2C135.36 140.571 135.441 141.084 135.44 141.6C135.817 141.137 136.278 140.75 136.8 140.46C137.258 140.213 137.77 140.082 138.29 140.08C138.799 140.056 139.304 140.185 139.74 140.45C140.085 140.656 140.344 140.979 140.47 141.36C140.595 141.87 140.649 142.395 140.63 142.92V145.24C140.602 145.76 140.602 146.28 140.63 146.8C140.64 146.887 140.67 146.971 140.719 147.044C140.768 147.117 140.833 147.177 140.91 147.22C141.189 147.332 141.49 147.38 141.79 147.36V147.77H138.01V147.36H138.18C138.477 147.397 138.777 147.33 139.03 147.17C139.157 147.056 139.235 146.899 139.25 146.73C139.25 146.56 139.25 146.06 139.25 145.24V142.85C139.26 142.432 139.233 142.013 139.17 141.6C139.095 141.332 138.929 141.098 138.7 140.94C138.427 140.735 138.091 140.633 137.75 140.65C137.301 140.653 136.862 140.789 136.49 141.04C136.039 141.354 135.655 141.755 135.36 142.22V145.22C135.326 145.739 135.326 146.26 135.36 146.78C135.372 146.868 135.404 146.952 135.454 147.025C135.505 147.098 135.572 147.158 135.65 147.2C135.932 147.314 136.237 147.362 136.54 147.34V147.75H132.8V147.34C133.093 147.362 133.387 147.318 133.66 147.21C133.738 147.176 133.807 147.123 133.861 147.057C133.915 146.991 133.952 146.913 133.97 146.83C134 146.294 134 145.756 133.97 145.22V143.01C133.997 142.49 133.997 141.97 133.97 141.45C133.956 141.363 133.923 141.28 133.873 141.207C133.823 141.134 133.757 141.074 133.68 141.03C133.398 140.916 133.093 140.868 132.79 140.89V140.47C133.524 140.408 134.251 140.277 134.96 140.08Z" fill="#2A2849"/>
<path d="M150.89 146.42H151.22C151.17 147.42 150.66 147.96 149.7 147.96C149.52 147.975 149.34 147.954 149.168 147.899C148.996 147.845 148.837 147.756 148.7 147.64C148.434 147.371 148.271 147.017 148.24 146.64C147.726 147.029 147.173 147.364 146.59 147.64C146.173 147.837 145.72 147.946 145.26 147.96C144.793 147.972 144.336 147.819 143.97 147.53C143.792 147.397 143.65 147.222 143.554 147.022C143.458 146.822 143.412 146.602 143.42 146.38C143.429 146.056 143.517 145.74 143.675 145.458C143.834 145.176 144.058 144.936 144.33 144.76C145.104 144.199 145.948 143.742 146.84 143.4L148.24 142.83V142.47C148.25 142.097 148.217 141.725 148.14 141.36C148.046 141.1 147.861 140.884 147.62 140.75C147.29 140.558 146.911 140.464 146.53 140.48C145.63 140.48 145.12 140.78 145.02 141.38C144.92 141.98 144.67 142.3 144.26 142.3C143.85 142.3 143.71 142.13 143.71 141.78C143.744 141.553 143.826 141.336 143.952 141.144C144.078 140.953 144.245 140.791 144.44 140.67C145.055 140.326 145.74 140.127 146.443 140.088C147.147 140.048 147.85 140.168 148.5 140.44C148.859 140.618 149.153 140.905 149.34 141.26C149.494 141.713 149.562 142.191 149.54 142.67V145.67C149.511 146.123 149.549 146.577 149.65 147.02C149.683 147.115 149.747 147.197 149.833 147.251C149.918 147.306 150.019 147.33 150.12 147.32C150.5 147.31 150.79 147.01 150.89 146.42ZM148.27 143.26L147.27 143.66C145.72 144.29 144.94 145.08 144.94 146.04C144.924 146.373 145.03 146.7 145.24 146.96C145.336 147.072 145.456 147.162 145.59 147.222C145.725 147.283 145.872 147.313 146.02 147.31C146.371 147.293 146.714 147.194 147.02 147.02C147.47 146.787 147.892 146.506 148.28 146.18L148.27 143.26Z" fill="#2A2849"/>
<path d="M158.98 145.97H159.38C159.207 146.631 158.801 147.207 158.237 147.592C157.673 147.978 156.989 148.148 156.31 148.07C155.818 148.08 155.328 147.991 154.871 147.807C154.414 147.623 153.998 147.348 153.65 147C153.286 146.623 153.002 146.176 152.816 145.686C152.631 145.196 152.547 144.673 152.57 144.15C152.548 143.605 152.641 143.062 152.843 142.555C153.044 142.049 153.35 141.591 153.74 141.21C154.1 140.847 154.528 140.56 155.001 140.366C155.473 140.172 155.98 140.075 156.49 140.08C157.103 140.073 157.707 140.217 158.25 140.5C158.79 140.78 159.06 141.113 159.06 141.5C159.06 141.656 159.007 141.807 158.91 141.93C158.86 141.995 158.794 142.047 158.719 142.082C158.645 142.116 158.563 142.133 158.48 142.13C158.08 142.13 157.84 141.9 157.75 141.43C157.736 141.286 157.691 141.146 157.618 141.021C157.545 140.896 157.445 140.789 157.326 140.706C157.207 140.623 157.072 140.567 156.929 140.542C156.787 140.517 156.64 140.523 156.5 140.56C156.151 140.537 155.801 140.602 155.484 140.749C155.166 140.895 154.89 141.119 154.68 141.4C154.22 142.16 154.007 143.044 154.07 143.93C154.022 144.883 154.247 145.831 154.72 146.66C154.935 146.989 155.234 147.254 155.585 147.43C155.937 147.606 156.328 147.685 156.72 147.66C157.238 147.702 157.754 147.554 158.17 147.243C158.587 146.932 158.875 146.479 158.98 145.97V145.97Z" fill="#2A2849"/>
</g>
<defs>
<clipPath id="clip0_2_32">
<rect width="159.38" height="148.08" fill="white"/>
</clipPath>
</defs>
</svg>
